<?xml version="1.0" standalone="no"?>
<!DOCTYPE svg PUBLIC "-//W3C//DTD SVG 20010904//EN"
 "http://www.w3.org/TR/2001/REC-SVG-20010904/DTD/svg10.dtd">
<svg version="1.0" xmlns="http://www.w3.org/2000/svg"
 width="384.000000pt" height="384.000000pt" viewBox="0 0 384.000000 384.000000"
 preserveAspectRatio="xMidYMid meet">

<g transform="translate(0.000000,384.000000) scale(0.100000,-0.100000)"
fill="#CCCCCC" stroke="none">
<path d="M1709 3720 c-624 -79 -1156 -461 -1423 -1020 -67 -142 -108 -264
-143 -429 -25 -116 -27 -145 -27 -351 0 -206 2 -236 27 -350 158 -742 703
-1281 1447 -1432 99 -20 145 -23 330 -23 185 0 231 3 330 23 497 101 914 378
1183 787 125 190 214 407 264 645 25 114 27 144 27 350 0 206 -2 235 -27 351
-52 247 -139 456 -272 654 -267 400 -670 671 -1148 771 -99 20 -158 26 -312
29 -104 2 -220 0 -256 -5z m1172 -775 c327 -57 479 -265 479 -653 l0 -92 -197
2 -198 3 -3 45 c-5 89 -23 183 -44 232 -50 116 -179 164 -329 122 -75 -21
-121 -61 -159 -137 -52 -106 -63 -190 -63 -477 -1 -329 17 -445 86 -546 48
-72 117 -105 227 -107 93 -1 156 19 200 64 38 40 69 120 76 197 l7 72 200 0
200 0 -6 -103 c-11 -189 -65 -326 -168 -421 -116 -108 -227 -145 -459 -153
-131 -4 -170 -2 -252 15 -130 27 -217 71 -299 152 -96 95 -151 208 -191 400
-25 123 -37 553 -18 710 46 402 202 608 507 674 90 19 299 20 404 1z m-1113
-187 l-3 -173 -382 -3 -383 -2 0 -205 0 -205 323 -2 322 -3 0 -170 0 -170
-322 -3 -323 -2 0 -225 0 -225 383 -2 382 -3 3 -172 2 -173 -585 0 -585 0 0
955 0 955 585 0 585 0 -2 -172z"/>
</g>
</svg>
